<svg width="183" height="183" viewBox="0 0 183 183" fill="none" xmlns="http://www.w3.org/2000/svg">
<path d="M91.1429 0C40.8065 0 0 40.806 0 91.1429C0 141.48 40.8065 182.286 91.1429 182.286C141.48 182.286 182.286 141.48 182.286 91.1429C182.286 40.806 141.48 0 91.1429 0Z" fill="#252A34"/>
<path d="M59.9893 139.037C59.9893 140.579 58.7475 141.829 57.2167 141.829H55.4363C53.9046 141.829 52.6632 140.579 52.6632 139.037V81.1669C52.6632 79.6252 53.9046 78.3747 55.4363 78.3747H57.2167C58.7475 78.3747 59.9893 79.6247 59.9893 81.1669V139.037Z" fill="white"/>
<path d="M77.9941 139.037C77.9941 140.579 76.7532 141.829 75.2216 141.829H73.442C71.9099 141.829 70.669 140.579 70.669 139.037V81.1669C70.669 79.6252 71.9099 78.3747 73.442 78.3747H75.2216C76.7532 78.3747 77.9941 79.6247 77.9941 81.1669V139.037Z" fill="white"/>
<path d="M96.0026 139.037C96.0026 140.579 94.7617 141.829 93.23 141.829H91.4505C89.9188 141.829 88.677 140.579 88.677 139.037V81.1669C88.677 79.6252 89.9188 78.3747 91.4505 78.3747H93.23C94.7617 78.3747 96.0026 79.6247 96.0026 81.1669V139.037Z" fill="white"/>
<path d="M114.009 139.037C114.009 140.579 112.766 141.829 111.235 141.829H109.455C107.923 141.829 106.682 140.579 106.682 139.037V81.1669C106.682 79.6252 107.923 78.3747 109.455 78.3747H111.235C112.766 78.3747 114.009 79.6247 114.009 81.1669V139.037Z" fill="white"/>
<path d="M132.012 139.037C132.012 140.579 130.771 141.829 129.24 141.829H127.46C125.928 141.829 124.687 140.579 124.687 139.037V81.1669C124.687 79.6252 125.928 78.3747 127.46 78.3747H129.24C130.771 78.3747 132.012 79.6247 132.012 81.1669V139.037Z" fill="white"/>
<path d="M45.0127 60.2705H143.226C144.893 60.2705 146.244 61.6217 146.244 63.2878C146.244 64.9543 144.893 66.3055 143.226 66.3055H45.0127C39.7118 66.3055 35.4153 62.0086 35.4153 56.7077V51.9172C35.4153 46.6155 39.7123 42.3181 45.0136 42.3181H143.226C144.893 42.3181 146.244 43.6693 146.244 45.3358C146.244 47.0024 144.893 48.3536 143.226 48.3536H45.0136C43.0454 48.3536 41.4499 49.949 41.4499 51.9172V56.7077C41.4499 58.676 43.0445 60.2705 45.0122 60.2705H45.0127Z" fill="white"/>
</svg>
